<svg xmlns="http://www.w3.org/2000/svg" width="1200" height="630" viewBox="0 0 1200 630">
<defs><linearGradient id="glass" x2="1" y2="1"><stop stop-color="#fff" stop-opacity=".85"/><stop offset="1" stop-color="#fffaf5" stop-opacity=".65"/></linearGradient></defs>
<rect width="1200" height="630" fill="#fffaf5"/>
<g fill="none" transform="translate(260,80) scale(.82)">
<defs>
 <linearGradient id="body" x1="230" y1="380" x2="1120" y2="240" gradientUnits="userSpaceOnUse"><stop stop-color="#f3e6d5"/><stop offset=".23" stop-color="#e4b7ae"/><stop offset=".42" stop-color="#d45060"/><stop offset=".68" stop-color="#800020"/><stop offset=".87" stop-color="#b13754"/><stop offset="1" stop-color="#eaa798"/></linearGradient>
 <linearGradient id="edge" x1="490" y1="85" x2="885" y2="560" gradientUnits="userSpaceOnUse"><stop stop-color="#fff9f2"/><stop offset=".3" stop-color="#ffe0cf" stop-opacity=".7"/><stop offset=".57" stop-color="#800020" stop-opacity="0"/><stop offset="1" stop-color="#280019" stop-opacity=".7"/></linearGradient>
 <linearGradient id="fold" x1="844" y1="340" x2="1098" y2="480" gradientUnits="userSpaceOnUse"><stop stop-color="#4b0d26"/><stop offset=".4" stop-color="#910c38"/><stop offset=".75" stop-color="#cf596d"/><stop offset="1" stop-color="#f3bdab"/></linearGradient>
 <filter id="shadow" x="-30%" y="-50%" width="160%" height="220%"><feGaussianBlur stdDeviation="24"/></filter>
</defs>
<path d="M89 557C323 694 402 325 553 222C704 120 755 179 868 308C1044 508 1193 459 1340 254" stroke="#773448" stroke-opacity=".14" stroke-width="158" filter="url(#shadow)"/>
<path d="M-100 465C126 668 324 560 459 301C598 36 744 113 849 257C1004 469 1182 545 1470 174" stroke="url(#body)" stroke-width="174" stroke-linecap="round"/>
<path d="M-100 465C126 668 324 560 459 301C598 36 744 113 849 257C1004 469 1182 545 1470 174" stroke="url(#edge)" stroke-width="171" stroke-linecap="round" opacity=".5"/>
</g>
<g font-family="Helvetica, Arial, sans-serif" fill="#2b1b20">
<path d="M89 74A21 21 0 1 0 96 90H77" stroke="#800020" stroke-width="9" stroke-linecap="round" fill="none"/>
<text x="114" y="109" font-size="51" font-weight="600" letter-spacing="-3">glui</text>
<text x="66" y="243" font-size="66" letter-spacing="-3">A little glue.</text><text x="66" y="318" font-size="66" letter-spacing="-3" fill="#800020">A clearer</text><text x="66" y="390" font-size="66" letter-spacing="-3" fill="#800020">headspace.</text>
<text x="68" y="457" font-size="18" fill="#6b575e">Claude Code, Codex, and OpenCode.</text><text x="68" y="486" font-size="18" fill="#6b575e">One floating Mac workspace.</text>
<rect x="615" y="173" width="506" height="244" rx="23" fill="url(#glass)" stroke="#fff" stroke-width="2"/>
<text x="640" y="204" font-size="12">GLUI / Your next idea</text><text x="1060" y="204" font-size="10" fill="#79656b">Preview</text>
<path d="M615 222H1121" stroke="#800020" opacity=".12"/>
<rect x="803" y="244" width="295" height="36" rx="10" fill="#800020" opacity=".06"/><text x="817" y="267" font-size="12">Let’s make this feel a little more like home.</text>
<text x="641" y="313" font-size="12" font-weight="600">Codex</text><text x="687" y="313" font-size="10" fill="#79656b">Ready when you are</text>
<text x="641" y="346" font-size="14">Three agents. One place to make it happen.</text><text x="641" y="370" font-size="14">Your context, carried forward.</text>
<text x="641" y="399" font-size="10" fill="#79656b">your-next-idea</text><text x="1010" y="399" font-size="10" fill="#79656b">Local workspace</text>
<rect x="615" y="429" width="506" height="55" rx="27" fill="url(#glass)" stroke="#fff" stroke-width="2"/>
<text x="639" y="464" font-size="20" fill="#79656b">+</text><text x="670" y="462" font-size="13" fill="#6b575e">What should we build next?</text><circle cx="1091" cy="456" r="18" fill="#800020"/><path d="M1091 464V448m-6 6 6-6 6 6" stroke="#fff" stroke-width="1.5" fill="none"/>
<text x="694" y="522" font-size="12" fill="#6b575e">Claude Code</text><text x="835" y="522" font-size="12" fill="#800020">Codex</text><text x="937" y="522" font-size="12" fill="#6b575e">OpenCode</text>
<text x="68" y="579" font-size="11" letter-spacing="2" fill="#79656b">YOUSSEF CHOUAY / SELECTED WORK</text></g></svg>